<svg xmlns="http://www.w3.org/2000/svg" viewBox="0 0 720 180" role="img" aria-labelledby="title desc">
  <title id="title">Innovation Group Projects LLC</title>
  <desc id="desc">Corporate construction and electrical contractor logo.</desc>
  <defs>
    <linearGradient id="mark" x1="70" y1="24" x2="166" y2="160" gradientUnits="userSpaceOnUse">
      <stop offset="0" stop-color="#ffb33c"/>
      <stop offset="0.55" stop-color="#f36b21"/>
      <stop offset="1" stop-color="#d94416"/>
    </linearGradient>
    <linearGradient id="steel" x1="10" y1="8" x2="198" y2="178" gradientUnits="userSpaceOnUse">
      <stop offset="0" stop-color="#f8fbff"/>
      <stop offset="0.32" stop-color="#9aa6b4"/>
      <stop offset="0.68" stop-color="#eef3f8"/>
      <stop offset="1" stop-color="#5e6b79"/>
    </linearGradient>
    <filter id="shadow" x="-10%" y="-20%" width="120%" height="140%">
      <feDropShadow dx="0" dy="10" stdDeviation="10" flood-color="#05070a" flood-opacity="0.26"/>
    </filter>
  </defs>
  <rect width="720" height="180" rx="0" fill="#0c1118"/>
  <g filter="url(#shadow)">
    <circle cx="92" cy="90" r="72" fill="none" stroke="url(#steel)" stroke-width="9"/>
    <circle cx="92" cy="90" r="55" fill="#121923" stroke="#222d3a" stroke-width="2"/>
    <path d="M58 126 96 42h25l-37 84H58Z" fill="url(#mark)"/>
    <path d="M113 42h22l39 84h-27l-23-52-27 52H75l38-84Z" fill="url(#mark)" opacity="0.97"/>
    <path d="M66 128h91l-9 18H55l11-18Z" fill="#f36b21"/>
    <path d="M151 64h14l-14 27h26l-44 45 15-32h-28l31-40Z" fill="#f6f8fb"/>
  </g>
  <g fill="#f7fafc">
    <text x="198" y="74" font-family="Arial, Helvetica, sans-serif" font-size="38" font-weight="800" letter-spacing="1.5">INNOVATION</text>
    <text x="198" y="115" font-family="Arial, Helvetica, sans-serif" font-size="31" font-weight="700" letter-spacing="1.2" fill="#d9e1ea">GROUP PROJECTS LLC</text>
    <rect x="198" y="130" width="86" height="5" fill="#f36b21"/>
    <text x="300" y="137" font-family="Arial, Helvetica, sans-serif" font-size="14" font-weight="700" letter-spacing="1.7" fill="#aeb9c6">ELECTRICAL  /  CONSTRUCTION</text>
  </g>
</svg>
